<svg xmlns="http://www.w3.org/2000/svg" width="1100" height="820" style="background:#111;">
  <defs>
    <style>
      .tbl-box { fill: #fff; stroke: #ccc; stroke-width: 1.5; rx: 6; }
      .tbl-header { fill: #1b3a57; }
      .tbl-title { fill: #fff; font-family: monospace; font-size: 13px; font-weight: bold; }
      .col-name { fill: #111; font-family: monospace; font-size: 11px; }
      .col-type { fill: #555; font-family: monospace; font-size: 10px; }
      .pk { fill: #e63946; font-family: monospace; font-size: 9px; font-weight: bold; }
      .fk { fill: #2563eb; font-family: monospace; font-size: 9px; font-weight: bold; }
      .line { stroke: #ffd166; stroke-width: 1.5; fill: none; }
    </style>
  </defs>

  <!-- ══ USERS TABLE ══ -->
  <rect x="30" y="60" width="200" height="185" rx="6" fill="#fff" stroke="#ccc" stroke-width="1.5"/>
  <rect x="30" y="60" width="200" height="30" rx="6" fill="#1b3a57"/>
  <rect x="30" y="80" width="200" height="10" fill="#1b3a57"/>
  <text x="130" y="80" text-anchor="middle" fill="#fff" font-family="monospace" font-size="13" font-weight="bold">users</text>
  <!-- rows -->
  <line x1="30" y1="90" x2="230" y2="90" stroke="#e2e8f0" stroke-width="1"/>
  <text x="40" y="105" fill="#111" font-family="monospace" font-size="11">id</text><text x="160" y="105" fill="#e63946" font-family="monospace" font-size="9" font-weight="bold">INT PK</text>
  <line x1="30" y1="110" x2="230" y2="110" stroke="#f0f0f0" stroke-width="1"/>
  <text x="40" y="125" fill="#111" font-family="monospace" font-size="11">name</text><text x="160" y="125" fill="#555" font-family="monospace" font-size="10">TEXT</text>
  <line x1="30" y1="130" x2="230" y2="130" stroke="#f0f0f0" stroke-width="1"/>
  <text x="40" y="145" fill="#111" font-family="monospace" font-size="11">email</text><text x="160" y="145" fill="#555" font-family="monospace" font-size="10">TEXT UNIQUE</text>
  <line x1="30" y1="150" x2="230" y2="150" stroke="#f0f0f0" stroke-width="1"/>
  <text x="40" y="165" fill="#111" font-family="monospace" font-size="11">phone</text><text x="160" y="165" fill="#555" font-family="monospace" font-size="10">TEXT</text>
  <line x1="30" y1="170" x2="230" y2="170" stroke="#f0f0f0" stroke-width="1"/>
  <text x="40" y="185" fill="#111" font-family="monospace" font-size="11">password</text><text x="160" y="185" fill="#555" font-family="monospace" font-size="10">TEXT</text>
  <line x1="30" y1="190" x2="230" y2="190" stroke="#f0f0f0" stroke-width="1"/>
  <text x="40" y="205" fill="#111" font-family="monospace" font-size="11">created</text><text x="160" y="205" fill="#555" font-family="monospace" font-size="10">TEXT</text>
  <line x1="30" y1="210" x2="230" y2="210" stroke="#f0f0f0" stroke-width="1"/>
  <text x="40" y="235" fill="#555" font-family="monospace" font-size="10" font-style="italic">🔐 hashed password</text>

  <!-- ══ COMPLAINTS TABLE ══ -->
  <rect x="380" y="30" width="220" height="340" rx="6" fill="#fff" stroke="#ccc" stroke-width="1.5"/>
  <rect x="380" y="30" width="220" height="30" rx="6" fill="#1b3a57"/>
  <rect x="380" y="50" width="220" height="10" fill="#1b3a57"/>
  <text x="490" y="50" text-anchor="middle" fill="#fff" font-family="monospace" font-size="13" font-weight="bold">complaints</text>
  <line x1="380" y1="60" x2="600" y2="60" stroke="#e2e8f0" stroke-width="1"/>
  <text x="390" y="75" fill="#111" font-family="monospace" font-size="11">id</text><text x="530" y="75" fill="#e63946" font-family="monospace" font-size="9" font-weight="bold">INT PK</text>
  <line x1="380" y1="80" x2="600" y2="80" stroke="#f0f0f0" stroke-width="1"/>
  <text x="390" y="95" fill="#111" font-family="monospace" font-size="11">user_email</text><text x="530" y="95" fill="#2563eb" font-family="monospace" font-size="9" font-weight="bold">FK→users</text>
  <line x1="380" y1="100" x2="600" y2="100" stroke="#f0f0f0" stroke-width="1"/>
  <text x="390" y="115" fill="#111" font-family="monospace" font-size="11">formatted_id</text><text x="530" y="115" fill="#555" font-family="monospace" font-size="10">TEXT</text>
  <line x1="380" y1="120" x2="600" y2="120" stroke="#f0f0f0" stroke-width="1"/>
  <text x="390" y="135" fill="#111" font-family="monospace" font-size="11">name</text><text x="530" y="135" fill="#555" font-family="monospace" font-size="10">TEXT</text>
  <line x1="380" y1="140" x2="600" y2="140" stroke="#f0f0f0" stroke-width="1"/>
  <text x="390" y="155" fill="#111" font-family="monospace" font-size="11">email</text><text x="530" y="155" fill="#555" font-family="monospace" font-size="10">TEXT</text>
  <line x1="380" y1="160" x2="600" y2="160" stroke="#f0f0f0" stroke-width="1"/>
  <text x="390" y="175" fill="#111" font-family="monospace" font-size="11">phone</text><text x="530" y="175" fill="#555" font-family="monospace" font-size="10">TEXT</text>
  <line x1="380" y1="180" x2="600" y2="180" stroke="#f0f0f0" stroke-width="1"/>
  <text x="390" y="195" fill="#111" font-family="monospace" font-size="11">crime_type</text><text x="530" y="195" fill="#555" font-family="monospace" font-size="10">TEXT</text>
  <line x1="380" y1="200" x2="600" y2="200" stroke="#f0f0f0" stroke-width="1"/>
  <text x="390" y="215" fill="#111" font-family="monospace" font-size="11">description</text><text x="530" y="215" fill="#555" font-family="monospace" font-size="10">TEXT</text>
  <line x1="380" y1="220" x2="600" y2="220" stroke="#f0f0f0" stroke-width="1"/>
  <text x="390" y="235" fill="#111" font-family="monospace" font-size="11">file</text><text x="530" y="235" fill="#555" font-family="monospace" font-size="10">TEXT</text>
  <line x1="380" y1="240" x2="600" y2="240" stroke="#f0f0f0" stroke-width="1"/>
  <text x="390" y="255" fill="#111" font-family="monospace" font-size="11">date</text><text x="530" y="255" fill="#555" font-family="monospace" font-size="10">TEXT</text>
  <line x1="380" y1="260" x2="600" y2="260" stroke="#f0f0f0" stroke-width="1"/>
  <text x="390" y="275" fill="#111" font-family="monospace" font-size="11">status</text><text x="530" y="275" fill="#555" font-family="monospace" font-size="10">TEXT</text>
  <line x1="380" y1="280" x2="600" y2="280" stroke="#f0f0f0" stroke-width="1"/>
  <text x="390" y="295" fill="#111" font-family="monospace" font-size="11">address</text><text x="530" y="295" fill="#555" font-family="monospace" font-size="10">TEXT</text>
  <line x1="380" y1="300" x2="600" y2="300" stroke="#f0f0f0" stroke-width="1"/>
  <text x="390" y="315" fill="#111" font-family="monospace" font-size="11">submitted</text><text x="530" y="315" fill="#555" font-family="monospace" font-size="10">TEXT</text>
  <line x1="380" y1="320" x2="600" y2="320" stroke="#f0f0f0" stroke-width="1"/>
  <text x="390" y="360" fill="#555" font-family="monospace" font-size="10" font-style="italic">📋 core complaint data</text>

  <!-- ══ OTP_STORE TABLE ══ -->
  <rect x="30" y="320" width="200" height="175" rx="6" fill="#fff" stroke="#ccc" stroke-width="1.5"/>
  <rect x="30" y="320" width="200" height="30" rx="6" fill="#1b3a57"/>
  <rect x="30" y="340" width="200" height="10" fill="#1b3a57"/>
  <text x="130" y="340" text-anchor="middle" fill="#fff" font-family="monospace" font-size="13" font-weight="bold">otp_store</text>
  <line x1="30" y1="350" x2="230" y2="350" stroke="#e2e8f0" stroke-width="1"/>
  <text x="40" y="365" fill="#111" font-family="monospace" font-size="11">id</text><text x="160" y="365" fill="#e63946" font-family="monospace" font-size="9" font-weight="bold">INT PK</text>
  <line x1="30" y1="370" x2="230" y2="370" stroke="#f0f0f0" stroke-width="1"/>
  <text x="40" y="385" fill="#111" font-family="monospace" font-size="11">token</text><text x="160" y="385" fill="#555" font-family="monospace" font-size="10">TEXT</text>
  <line x1="30" y1="390" x2="230" y2="390" stroke="#f0f0f0" stroke-width="1"/>
  <text x="40" y="405" fill="#111" font-family="monospace" font-size="11">otp</text><text x="160" y="405" fill="#555" font-family="monospace" font-size="10">TEXT</text>
  <line x1="30" y1="410" x2="230" y2="410" stroke="#f0f0f0" stroke-width="1"/>
  <text x="40" y="425" fill="#111" font-family="monospace" font-size="11">created</text><text x="160" y="425" fill="#555" font-family="monospace" font-size="10">REAL</text>
  <line x1="30" y1="430" x2="230" y2="430" stroke="#f0f0f0" stroke-width="1"/>
  <text x="40" y="445" fill="#111" font-family="monospace" font-size="11">attempts</text><text x="160" y="445" fill="#555" font-family="monospace" font-size="10">INT</text>
  <line x1="30" y1="450" x2="230" y2="450" stroke="#f0f0f0" stroke-width="1"/>
  <text x="40" y="465" fill="#111" font-family="monospace" font-size="11">verified</text><text x="160" y="465" fill="#555" font-family="monospace" font-size="10">INT</text>
  <line x1="30" y1="470" x2="230" y2="470" stroke="#f0f0f0" stroke-width="1"/>
  <text x="40" y="488" fill="#555" font-family="monospace" font-size="10" font-style="italic">🔑 email OTP verify</text>

  <!-- ══ ACTIVITY_LOGS TABLE ══ -->
  <rect x="730" y="30" width="210" height="195" rx="6" fill="#fff" stroke="#ccc" stroke-width="1.5"/>
  <rect x="730" y="30" width="210" height="30" rx="6" fill="#1b3a57"/>
  <rect x="730" y="50" width="210" height="10" fill="#1b3a57"/>
  <text x="835" y="50" text-anchor="middle" fill="#fff" font-family="monospace" font-size="13" font-weight="bold">activity_logs</text>
  <line x1="730" y1="60" x2="940" y2="60" stroke="#e2e8f0" stroke-width="1"/>
  <text x="740" y="75" fill="#111" font-family="monospace" font-size="11">id</text><text x="870" y="75" fill="#e63946" font-family="monospace" font-size="9" font-weight="bold">INT PK</text>
  <line x1="730" y1="80" x2="940" y2="80" stroke="#f0f0f0" stroke-width="1"/>
  <text x="740" y="95" fill="#111" font-family="monospace" font-size="11">user_email</text><text x="870" y="95" fill="#2563eb" font-family="monospace" font-size="9" font-weight="bold">FK→users</text>
  <line x1="730" y1="100" x2="940" y2="100" stroke="#f0f0f0" stroke-width="1"/>
  <text x="740" y="115" fill="#111" font-family="monospace" font-size="11">action</text><text x="870" y="115" fill="#555" font-family="monospace" font-size="10">TEXT</text>
  <line x1="730" y1="120" x2="940" y2="120" stroke="#f0f0f0" stroke-width="1"/>
  <text x="740" y="135" fill="#111" font-family="monospace" font-size="11">detail</text><text x="870" y="135" fill="#555" font-family="monospace" font-size="10">TEXT</text>
  <line x1="730" y1="140" x2="940" y2="140" stroke="#f0f0f0" stroke-width="1"/>
  <text x="740" y="155" fill="#111" font-family="monospace" font-size="11">ip</text><text x="870" y="155" fill="#555" font-family="monospace" font-size="10">TEXT</text>
  <line x1="730" y1="160" x2="940" y2="160" stroke="#f0f0f0" stroke-width="1"/>
  <text x="740" y="175" fill="#111" font-family="monospace" font-size="11">timestamp</text><text x="870" y="175" fill="#555" font-family="monospace" font-size="10">TEXT</text>
  <line x1="730" y1="180" x2="940" y2="180" stroke="#f0f0f0" stroke-width="1"/>
  <text x="740" y="218" fill="#555" font-family="monospace" font-size="10" font-style="italic">📊 user action logs</text>

  <!-- ══ AI_ANALYSIS_LOGS TABLE ══ -->
  <rect x="730" y="280" width="210" height="215" rx="6" fill="#fff" stroke="#ccc" stroke-width="1.5"/>
  <rect x="730" y="280" width="210" height="30" rx="6" fill="#1b3a57"/>
  <rect x="730" y="300" width="210" height="10" fill="#1b3a57"/>
  <text x="835" y="300" text-anchor="middle" fill="#fff" font-family="monospace" font-size="12" font-weight="bold">ai_analysis_logs</text>
  <line x1="730" y1="310" x2="940" y2="310" stroke="#e2e8f0" stroke-width="1"/>
  <text x="740" y="325" fill="#111" font-family="monospace" font-size="11">id</text><text x="870" y="325" fill="#e63946" font-family="monospace" font-size="9" font-weight="bold">INT PK</text>
  <line x1="730" y1="330" x2="940" y2="330" stroke="#f0f0f0" stroke-width="1"/>
  <text x="740" y="345" fill="#111" font-family="monospace" font-size="11">user_email</text><text x="870" y="345" fill="#2563eb" font-family="monospace" font-size="9" font-weight="bold">FK→users</text>
  <line x1="730" y1="350" x2="940" y2="350" stroke="#f0f0f0" stroke-width="1"/>
  <text x="740" y="365" fill="#111" font-family="monospace" font-size="11">input_text</text><text x="870" y="365" fill="#555" font-family="monospace" font-size="10">TEXT</text>
  <line x1="730" y1="370" x2="940" y2="370" stroke="#f0f0f0" stroke-width="1"/>
  <text x="740" y="385" fill="#111" font-family="monospace" font-size="11">crime</text><text x="870" y="385" fill="#555" font-family="monospace" font-size="10">TEXT</text>
  <line x1="730" y1="390" x2="940" y2="390" stroke="#f0f0f0" stroke-width="1"/>
  <text x="740" y="405" fill="#111" font-family="monospace" font-size="11">category</text><text x="870" y="405" fill="#555" font-family="monospace" font-size="10">TEXT</text>
  <line x1="730" y1="410" x2="940" y2="410" stroke="#f0f0f0" stroke-width="1"/>
  <text x="740" y="425" fill="#111" font-family="monospace" font-size="11">threat</text><text x="870" y="425" fill="#555" font-family="monospace" font-size="10">TEXT</text>
  <line x1="730" y1="430" x2="940" y2="430" stroke="#f0f0f0" stroke-width="1"/>
  <text x="740" y="445" fill="#111" font-family="monospace" font-size="11">confidence</text><text x="870" y="445" fill="#555" font-family="monospace" font-size="10">TEXT</text>
  <line x1="730" y1="450" x2="940" y2="450" stroke="#f0f0f0" stroke-width="1"/>
  <text x="740" y="465" fill="#111" font-family="monospace" font-size="11">timestamp</text><text x="870" y="465" fill="#555" font-family="monospace" font-size="10">TEXT</text>
  <line x1="730" y1="470" x2="940" y2="470" stroke="#f0f0f0" stroke-width="1"/>
  <text x="740" y="488" fill="#555" font-family="monospace" font-size="10" font-style="italic">🤖 AI crime analysis</text>

  <!-- ══ FEEDBACK TABLE ══ -->
  <rect x="380" y="430" width="210" height="175" rx="6" fill="#fff" stroke="#ccc" stroke-width="1.5"/>
  <rect x="380" y="430" width="210" height="30" rx="6" fill="#1b3a57"/>
  <rect x="380" y="450" width="210" height="10" fill="#1b3a57"/>
  <text x="485" y="450" text-anchor="middle" fill="#fff" font-family="monospace" font-size="13" font-weight="bold">feedback</text>
  <line x1="380" y1="460" x2="590" y2="460" stroke="#e2e8f0" stroke-width="1"/>
  <text x="390" y="475" fill="#111" font-family="monospace" font-size="11">id</text><text x="520" y="475" fill="#e63946" font-family="monospace" font-size="9" font-weight="bold">INT PK</text>
  <line x1="380" y1="480" x2="590" y2="480" stroke="#f0f0f0" stroke-width="1"/>
  <text x="390" y="495" fill="#111" font-family="monospace" font-size="11">user_email</text><text x="520" y="495" fill="#2563eb" font-family="monospace" font-size="9" font-weight="bold">FK→users</text>
  <line x1="380" y1="500" x2="590" y2="500" stroke="#f0f0f0" stroke-width="1"/>
  <text x="390" y="515" fill="#111" font-family="monospace" font-size="11">complaint_id</text><text x="520" y="515" fill="#2563eb" font-family="monospace" font-size="9" font-weight="bold">FK→complaints</text>
  <line x1="380" y1="520" x2="590" y2="520" stroke="#f0f0f0" stroke-width="1"/>
  <text x="390" y="535" fill="#111" font-family="monospace" font-size="11">rating</text><text x="520" y="535" fill="#555" font-family="monospace" font-size="10">INT</text>
  <line x1="380" y1="540" x2="590" y2="540" stroke="#f0f0f0" stroke-width="1"/>
  <text x="390" y="555" fill="#111" font-family="monospace" font-size="11">comment</text><text x="520" y="555" fill="#555" font-family="monospace" font-size="10">TEXT</text>
  <line x1="380" y1="560" x2="590" y2="560" stroke="#f0f0f0" stroke-width="1"/>
  <text x="390" y="575" fill="#111" font-family="monospace" font-size="11">timestamp</text><text x="520" y="575" fill="#555" font-family="monospace" font-size="10">TEXT</text>
  <line x1="380" y1="580" x2="590" y2="580" stroke="#f0f0f0" stroke-width="1"/>
  <text x="390" y="598" fill="#555" font-family="monospace" font-size="10" font-style="italic">⭐ user feedback</text>

  <!-- ══ RELATIONSHIP LINES ══ -->
  <!-- users → complaints -->
  <line x1="230" y1="145" x2="380" y2="95" stroke="#ffd166" stroke-width="1.5" stroke-dasharray="5,3"/>
  <!-- users → activity_logs -->
  <line x1="230" y1="130" x2="730" y2="95" stroke="#ffd166" stroke-width="1.5" stroke-dasharray="5,3"/>
  <!-- users → ai_analysis_logs -->
  <line x1="230" y1="150" x2="730" y2="345" stroke="#ffd166" stroke-width="1.5" stroke-dasharray="5,3"/>
  <!-- users → feedback -->
  <line x1="230" y1="160" x2="380" y2="495" stroke="#ffd166" stroke-width="1.5" stroke-dasharray="5,3"/>
  <!-- complaints → feedback -->
  <line x1="490" y1="370" x2="490" y2="430" stroke="#ffd166" stroke-width="1.5" stroke-dasharray="5,3"/>

  <!-- ══ LEGEND ══ -->
  <rect x="30" y="660" width="300" height="80" rx="6" fill="#1b3a57"/>
  <text x="50" y="682" fill="#fff" font-family="monospace" font-size="12" font-weight="bold">Legend</text>
  <line x1="50" y1="695" x2="80" y2="695" stroke="#ffd166" stroke-width="1.5" stroke-dasharray="5,3"/>
  <text x="90" y="699" fill="#fff" font-family="monospace" font-size="11">Relationship (FK)</text>
  <rect x="50" y="710" width="12" height="12" fill="#e63946"/>
  <text x="70" y="721" fill="#fff" font-family="monospace" font-size="11">Primary Key (PK)</text>
  <rect x="180" y="710" width="12" height="12" fill="#2563eb"/>
  <text x="200" y="721" fill="#fff" font-family="monospace" font-size="11">Foreign Key (FK)</text>

  <!-- Title -->
  <text x="550" y="760" text-anchor="middle" fill="#ffd166" font-family="monospace" font-size="16" font-weight="bold">CyberGuard Portal — ER Diagram</text>
  <text x="550" y="780" text-anchor="middle" fill="#888" font-family="monospace" font-size="11">Authentication: Flask Session + Werkzeug Password Hash + OTP</text>
</svg>
